<svg width="102" height="32" viewBox="0 0 102 32" fill="none" xmlns="http://www.w3.org/2000/svg">
<path d="M47.7189 16.4292C48.0308 14.2877 47.4902 13.3521 45.9309 13.3521C44.3715 13.3521 43.5815 14.2877 43.2696 16.4292C42.9577 18.5707 43.4983 19.5063 45.0576 19.5063C46.617 19.5063 47.4279 18.5915 47.7189 16.45V16.4292Z" fill="white"/>
<path fill-rule="evenodd" clip-rule="evenodd" d="M52.9584 15.7015C52.9584 19.34 51.503 22.8329 48.9456 25.3903C46.3883 27.9476 42.8953 29.3822 39.2569 29.403C35.6184 29.403 32.1254 27.9476 29.5681 25.3903C26.9899 22.8121 25.5553 19.34 25.5553 15.7015C25.5553 12.063 27.0107 8.57007 29.5681 6.01273C32.1462 3.4346 35.6184 2 39.2569 2C42.8953 2 46.3883 3.4554 48.9456 6.01273C51.5238 8.59086 52.9584 12.063 52.9584 15.7015ZM26.283 12.6244L26.6157 13.4352C26.5117 13.8719 26.4286 14.3293 26.3662 14.7867L26.0335 14.1629C26.0751 13.6432 26.1791 13.1234 26.283 12.6244ZM39.1529 2.33266C38.8202 2.33266 38.4876 2.33266 38.1549 2.37425L38.0302 2.68612C38.3628 2.62374 38.7163 2.58216 39.0697 2.54058L39.1529 2.33266ZM37.7807 2.43662C37.5104 2.43662 37.2401 2.4782 36.9698 2.54058C36.8866 2.54058 36.8243 2.56137 36.7619 2.58216L36.5748 3.03957C36.6926 3.01185 36.8104 2.98181 36.9282 2.95178C37.1639 2.89172 37.3995 2.83165 37.6351 2.79007L37.7807 2.43662ZM34.454 3.22669C33.9343 3.41381 33.4353 3.64252 32.9571 3.9128L32.8115 4.72367C33.2481 4.45338 33.6848 4.20388 34.1422 3.97518L34.454 3.22669ZM36.3045 2.66532C35.8679 2.74849 35.4312 2.87324 35.0154 3.01878L34.7451 3.6841C35.1817 3.47619 35.6392 3.30986 36.0966 3.16432L36.3045 2.66532ZM31.0443 6.05431C31.3977 5.72165 31.7928 5.43057 32.1878 5.1395L32.3333 4.28705C31.9175 4.53655 31.4809 4.82762 31.0858 5.1395L31.0443 6.05431ZM30.5037 5.63849C30.0671 6.03352 29.6512 6.44935 29.2562 6.90676L29.381 7.84237C29.7136 7.42654 30.0671 7.01072 30.4621 6.63647L30.5037 5.63849ZM39.4648 2.51978L39.5271 2.35345C40.1925 2.35345 40.8578 2.41583 41.5231 2.51978H39.4648ZM26.3454 18.2588L26.1791 17.9678C26.283 18.5083 26.4078 19.0489 26.5741 19.5687C26.491 19.1321 26.4078 18.6747 26.3662 18.2173L26.3454 18.2588ZM25.992 15.1817V16.5747L26.2415 17.0529V15.7847L25.992 15.1817ZM27.1355 10.1918C26.9276 10.6492 26.7405 11.1274 26.5949 11.6056L26.9276 12.4165C27.0731 11.9591 27.2394 11.5016 27.4266 11.065L27.1355 10.1918ZM28.6533 7.65525C28.2582 8.19582 27.884 8.75719 27.5721 9.33935L27.884 10.2126C28.1543 9.6928 28.4661 9.17302 28.8196 8.67402L28.6533 7.65525ZM37.1985 3.26365C36.9629 3.32834 36.7272 3.39302 36.4916 3.47619L36.2005 4.20388C36.28 4.17115 36.3606 4.13736 36.442 4.10322C36.7223 3.98562 37.0124 3.86395 37.3025 3.76727L37.552 3.16432C37.4341 3.19897 37.3163 3.23131 37.1985 3.26365ZM39.3816 3.16432C38.9034 3.26827 38.4668 3.37223 38.0094 3.51777L38.2381 2.97719C38.6747 2.89403 39.1113 2.83165 39.5479 2.76928L39.3816 3.16432ZM26.5325 15.951L26.9068 16.7619C26.8652 17.2609 26.8236 17.7598 26.8028 18.2796L26.4702 17.8014V17.448C26.4702 16.949 26.491 16.4708 26.5325 15.9718V15.951ZM32.167 5.74244C32.6868 5.34741 33.2066 4.99396 33.7471 4.68209L33.4353 5.70086C32.9779 6.03352 32.5205 6.38698 32.1046 6.76122L32.167 5.74244ZM34.5296 5.01667C34.4842 5.04342 34.4383 5.07049 34.3917 5.09791C34.3085 5.13949 34.2461 5.18108 34.163 5.24345L34.4333 4.30784C34.8699 4.07914 35.3065 3.87122 35.7639 3.70489L35.4104 4.51575C35.1036 4.67819 34.8281 4.84063 34.5296 5.01667ZM40.1093 2.70691H41.1489V2.68612H41.1904L41.0865 2.91482C40.7538 2.91482 40.3796 2.97719 40.0677 3.03957C40.0469 3.03957 40.0313 3.04477 40.0157 3.04996C40.0001 3.05516 39.9846 3.06036 39.9638 3.06036L40.1093 2.70691ZM31.5225 7.32259C31.0443 7.78 30.6076 8.2582 30.1918 8.77798L30.1294 7.67604C30.5869 7.15626 31.0651 6.67806 31.5848 6.24144L31.5225 7.32259ZM27.4058 14.059C27.2394 14.6204 27.1147 15.1817 27.0107 15.7431L26.6157 14.9322C26.7197 14.3501 26.8444 13.7887 27.0107 13.2273L27.4058 14.059ZM26.7612 19.0697C26.8028 19.9845 26.9068 20.8993 27.0939 21.7934C26.782 20.7746 26.5741 19.7142 26.4702 18.6539L26.7612 19.0697ZM43.6854 2.89403H43.6022C43.0201 2.79007 42.4379 2.70691 41.8558 2.68612L41.7934 2.85245H42.5419C42.6204 2.85245 42.7036 2.85708 42.7914 2.86197C42.8895 2.86744 42.9935 2.87324 43.1033 2.87324C43.1736 2.87324 43.2536 2.87809 43.3364 2.88311C43.4248 2.88848 43.5163 2.89403 43.6022 2.89403C43.623 2.89403 43.6646 2.89403 43.6854 2.91482V2.89403ZM29.6928 9.4641C29.3602 9.9423 29.0483 10.4205 28.7572 10.9403L28.5077 9.87992C28.8404 9.31856 29.2146 8.79877 29.6305 8.27899L29.6928 9.4641ZM28.383 11.7096C28.1127 12.2293 27.884 12.7699 27.6969 13.3105L27.3018 12.5204C27.5305 11.8759 27.8008 11.2729 28.1127 10.67L28.383 11.7096ZM38.4876 17.7391C37.7807 20.4835 36.1381 21.6686 32.9155 21.6686C29.1315 21.6686 27.7176 20.0261 28.2374 16.3876C28.7572 12.7491 30.5869 11.1274 34.3917 11.1274C37.6143 11.1274 38.9242 12.3125 38.841 15.057H35.8471C35.8055 13.8303 35.2649 13.3105 34.0798 13.3105C32.3957 13.3105 31.5225 14.2461 31.2314 16.3876C30.9403 18.5291 31.5433 19.4647 33.2274 19.4647C33.7471 19.5063 34.2669 19.34 34.6828 19.0281C35.0986 18.7162 35.3897 18.2588 35.4936 17.7391H38.4876ZM45.5566 21.6686C44.1012 21.6686 43.0825 21.3152 42.4587 20.5251L41.9181 21.4815H39.5687L41.5647 7.34338H44.5586L43.8933 12.0838C44.8081 11.4185 45.9101 11.1066 47.0328 11.169C50.1307 11.169 51.2119 12.7907 50.6921 16.4292C50.1723 20.0677 48.6338 21.6686 45.5566 21.6686Z" fill="white"/>
<path d="M8.34011 17.7806C8.23615 18.3004 7.94507 18.7578 7.52924 19.0697C7.11342 19.3816 6.59363 19.5479 6.07385 19.5479C4.36896 19.5479 3.7868 18.6123 4.07788 16.4708C4.36896 14.3293 5.2214 13.3937 6.92629 13.3937C8.13219 13.3937 8.65198 13.9342 8.71435 15.1401H11.7291C11.7915 12.3957 10.4816 11.2106 7.25896 11.2106C3.45414 11.2106 1.6245 12.8323 1.10471 16.4708C0.584931 20.1093 1.97795 21.7102 5.78277 21.7102C9.00543 21.7102 10.6479 20.5251 11.3341 17.7806H8.34011Z" fill="white"/>
<path d="M18.6526 13.7471H20.108L20.4615 11.2314H19.0269C18.5487 11.2106 18.0497 11.3145 17.6131 11.5017C17.1764 11.6888 16.7606 11.9799 16.4487 12.3541L16.1784 11.3977H13.829L12.3944 21.4815H15.3884L16.0953 16.4292C16.3656 14.5372 17.1141 13.7263 18.6318 13.7263L18.6526 13.7471Z" fill="white"/>
<path d="M23.497 21.5231L24.9108 11.4185H21.9377L20.4823 21.4815L23.497 21.5231Z" fill="white"/>
<path d="M24.0376 6.94834C22.8317 6.94834 22.2495 7.40575 22.0832 8.54928C21.9169 9.6928 22.3951 10.1502 23.601 10.1502C24.8069 10.1502 25.389 9.6928 25.5553 8.54928C25.7217 7.40575 25.2227 6.90676 24.0168 6.90676L24.0376 6.94834Z" fill="white"/>
<path d="M60.6927 21.4815H63.0422L64.4768 11.3769H61.5036L60.6927 17.0737C60.4432 18.7786 59.7155 19.4855 58.4888 19.4855C57.2622 19.4855 56.8255 18.6747 57.0958 16.8242L57.9067 11.3561H54.9127L54.1019 16.8242C53.6237 20.2132 54.6217 21.6478 57.3869 21.6478C58.5096 21.7102 59.6116 21.3568 60.4848 20.6291L60.7343 21.4399L60.6927 21.4815Z" fill="white"/>
<path d="M68.4687 19.4647L74.6021 13.0194L74.8516 11.3353H66.2856L65.9945 13.3521H71.0468L64.8926 19.7974L64.6431 21.4815H73.6042L73.8952 19.4647H68.4687Z" fill="white"/>
<path d="M78.8644 19.4647L84.9978 13.0194L85.2265 11.3353H76.6605L76.3694 13.3521H81.4217L75.2675 19.7974L75.0388 21.4815H83.9998L84.2909 19.4647H78.8644Z" fill="white"/>
<path d="M87.3061 12.1589L90.2096 8.64146H94.0636L91.6943 22.7617H88.7463L90.4419 12.1589H87.3061Z" fill="white"/>
<path d="M94.2428 12.1589L97.1463 8.64146H101L98.631 22.7617H95.6829L97.3786 12.1589H94.2428Z" fill="white"/>
</svg>
